<?xml version="1.0" encoding="iso-8859-1"?>
<!-- Generator: Adobe Illustrator 19.0.0, SVG Export Plug-In . SVG Version: 6.00 Build 0)  -->
<svg xmlns="http://www.w3.org/2000/svg" xmlns:xlink="http://www.w3.org/1999/xlink" version="1.1" id="Capa_1" x="0px" y="0px" viewBox="0 0 470 470" style="enable-background:new 0 0 470 470;" xml:space="preserve" width="512px" height="512px">
<g>
	<path d="M401.17,68.83C356.784,24.444,297.771,0,235,0C172.229,0,113.215,24.444,68.83,68.83C24.444,113.215,0,172.229,0,235   s24.444,121.785,68.83,166.17C113.215,445.556,172.229,470,235,470c62.771,0,121.784-24.444,166.17-68.83   C445.556,356.785,470,297.771,470,235S445.556,113.215,401.17,68.83z M235,455c-121.309,0-220-98.691-220-220S113.691,15,235,15   s220,98.691,220,220S356.309,455,235,455z" fill="#FFFFFF"/>
	<path d="M292.5,117.5c0-31.706-25.794-57.5-57.5-57.5c-31.706,0-57.5,25.794-57.5,57.5S203.294,175,235,175   C266.706,175,292.5,149.206,292.5,117.5z M235,160c-23.435,0-42.5-19.065-42.5-42.5S211.565,75,235,75s42.5,19.065,42.5,42.5   S258.435,160,235,160z" fill="#FFFFFF"/>
	<path d="M358.688,379.102C324.256,408.7,280.329,425,235,425c-104.766,0-190-85.233-190-190c0-7.49,0.442-15.006,1.316-22.422   c73.847,1.321,117.909,19.225,154.496,38.479c3.665,1.928,8.2,0.521,10.13-3.145c1.929-3.665,0.521-8.201-3.145-10.13   c-39.347-20.707-86.932-39.919-167.991-40.278c-3.736,0-6.886,2.703-7.447,6.365C30.794,214.102,30,224.576,30,235   c0,113.038,91.962,205,205,205c48.915,0,96.314-17.587,133.465-49.523c3.142-2.7,3.499-7.436,0.799-10.577   C366.563,376.76,361.828,376.402,358.688,379.102z" fill="#FFFFFF"/>
	<circle cx="312.947" cy="327.329" r="7.5" fill="#FFFFFF"/>
	<circle cx="112.947" cy="257.329" r="7.5" fill="#FFFFFF"/>
	<circle cx="350.947" cy="277.329" r="7.5" fill="#FFFFFF"/>
	<path d="M437.641,203.87c-0.561-3.663-3.711-6.365-7.414-6.365c-99.246,0.439-149.934,29.439-198.951,57.485   c-40.611,23.236-78.971,45.183-144.148,52.786c-4.114,0.48-7.061,4.205-6.581,8.319c0.48,4.115,4.205,7.064,8.319,6.58   c68.225-7.959,109.725-31.703,149.859-54.666c48.358-27.668,94.09-53.838,184.96-55.433C424.559,219.994,425,227.51,425,235   c0,45.329-16.301,89.255-45.898,123.687c-2.7,3.141-2.343,7.876,0.799,10.577c1.415,1.217,3.154,1.813,4.886,1.813   c2.109,0,4.207-0.886,5.69-2.611C422.412,331.314,440,283.915,440,235C440,224.576,439.206,214.102,437.641,203.87z" fill="#FFFFFF"/>
	<path d="M249.991,203.571c0.466,0,0.938-0.043,1.413-0.134c34.933-6.657,62.876-34.6,69.532-69.533   c0.775-4.069-1.895-7.996-5.963-8.771c-4.068-0.773-7.997,1.895-8.771,5.964c-5.516,28.941-28.665,52.091-57.606,57.606   c-4.068,0.775-6.738,4.702-5.963,8.771C243.317,201.068,246.462,203.571,249.991,203.571z" fill="#FFFFFF"/>
	<path d="M218.596,203.437c0.474,0.09,0.946,0.134,1.412,0.134c3.529,0,6.674-2.503,7.359-6.098   c0.775-4.069-1.895-7.996-5.964-8.771c-34.131-6.503-58.904-36.448-58.904-71.202c0-39.977,32.523-72.5,72.5-72.5   c34.753,0,64.697,24.773,71.202,58.904c0.774,4.069,4.7,6.739,8.771,5.964c4.068-0.775,6.738-4.703,5.963-8.771   C313.086,59.9,276.944,30,235,30c-48.248,0-87.5,39.252-87.5,87.5C147.5,159.445,177.4,195.587,218.596,203.437z" fill="#FFFFFF"/>
</g>
<g>
</g>
<g>
</g>
<g>
</g>
<g>
</g>
<g>
</g>
<g>
</g>
<g>
</g>
<g>
</g>
<g>
</g>
<g>
</g>
<g>
</g>
<g>
</g>
<g>
</g>
<g>
</g>
<g>
</g>
</svg>
