<?xml version="1.0" encoding="iso-8859-1"?>
<!-- Generator: Adobe Illustrator 19.0.0, SVG Export Plug-In . SVG Version: 6.00 Build 0)  -->
<svg xmlns="http://www.w3.org/2000/svg" xmlns:xlink="http://www.w3.org/1999/xlink" version="1.1" id="Capa_1" x="0px" y="0px" viewBox="0 0 470 470" style="enable-background:new 0 0 470 470;" xml:space="preserve" width="512px" height="512px">
<g>
	<path d="M401.17,68.83C356.785,24.444,297.771,0,235,0S113.215,24.444,68.83,68.83C24.444,113.215,0,172.229,0,235   s24.444,121.785,68.83,166.17C113.215,445.556,172.229,470,235,470s121.785-24.444,166.17-68.83   C445.556,356.785,470,297.771,470,235S445.556,113.215,401.17,68.83z M235,455c-121.309,0-220-98.691-220-220S113.691,15,235,15   s220,98.691,220,220S356.309,455,235,455z" fill="#FFFFFF"/>
	<path d="M390.959,312.5c0-4.142-3.358-7.5-7.5-7.5H176.542c-4.142,0-7.5,3.358-7.5,7.5s3.358,7.5,7.5,7.5h206.917   C387.601,320,390.959,316.642,390.959,312.5z" fill="#FFFFFF"/>
	<path d="M154.042,312.5c0-4.142-3.358-7.5-7.5-7.5h-60c-4.142,0-7.5,3.358-7.5,7.5s3.358,7.5,7.5,7.5h60   C150.684,320,154.042,316.642,154.042,312.5z" fill="#FFFFFF"/>
	<path d="M106.652,350h176c4.142,0,7.5-3.358,7.5-7.5s-3.358-7.5-7.5-7.5h-176c-4.142,0-7.5,3.358-7.5,7.5S102.51,350,106.652,350z" fill="#FFFFFF"/>
	<path d="M211.538,365c-4.142,0-7.5,3.358-7.5,7.5s3.358,7.5,7.5,7.5h119c4.142,0,7.5-3.358,7.5-7.5s-3.358-7.5-7.5-7.5H211.538z" fill="#FFFFFF"/>
	<path d="M426.716,275H43.284c-2.307,0-4.486,1.062-5.907,2.879c-1.421,1.817-1.928,4.188-1.372,6.427   c11.642,46.937,39.798,88.487,79.282,116.995c3.359,2.425,8.047,1.668,10.471-1.69c2.425-3.358,1.668-8.046-1.69-10.471   C90.089,364.606,65.162,329.671,53.127,290h363.754C392.755,369.96,319.297,425,235,425c-30.364,0-59.405-6.994-86.318-20.786   c-3.686-1.89-8.207-0.432-10.095,3.254c-1.889,3.686-0.433,8.206,3.254,10.095C170.891,432.451,202.234,440,235,440   c46.662,0,90.651-15.337,127.214-44.354c35.467-28.147,60.959-67.689,71.782-111.341c0.555-2.239,0.049-4.609-1.373-6.426   C431.202,276.062,429.023,275,426.716,275z" fill="#FFFFFF"/>
	<path d="M431.73,245h-36.732v-15h37.111c2.483,0,4.806-1.229,6.202-3.283c1.396-2.054,1.686-4.665,0.772-6.975l-44.611-112.852   c-1.131-2.862-3.897-4.743-6.975-4.743s-5.843,1.88-6.975,4.743l-34.703,87.789c-1.523,3.852,0.365,8.209,4.217,9.732   c3.853,1.524,8.209-0.365,9.732-4.217l27.729-70.145L421.08,215h-58.377c-4.142,0-7.5,3.358-7.5,7.5s3.358,7.5,7.5,7.5h17.295v15   h-86.666v-15h37.111c2.483,0,4.806-1.229,6.202-3.283c1.396-2.054,1.686-4.665,0.772-6.975l-44.611-112.852   c-1.131-2.862-3.897-4.743-6.975-4.743c-3.078,0-5.843,1.88-6.975,4.743l-34.703,87.789c-1.523,3.852,0.365,8.209,4.217,9.732   c3.853,1.524,8.209-0.365,9.732-4.217l27.729-70.145L319.414,215h-58.377c-4.142,0-7.5,3.358-7.5,7.5s3.358,7.5,7.5,7.5h17.295v15   h-86.665v-15h37.111c2.483,0,4.806-1.229,6.202-3.283c1.396-2.054,1.686-4.665,0.772-6.975l-44.611-112.852   c-1.131-2.862-3.897-4.743-6.975-4.743c-3.078,0-5.843,1.88-6.975,4.743l-34.703,87.789c-1.523,3.852,0.365,8.209,4.217,9.732   c3.852,1.524,8.209-0.365,9.732-4.217l27.729-70.145L217.749,215h-58.377c-4.142,0-7.5,3.358-7.5,7.5s3.358,7.5,7.5,7.5h17.295v15   H90.002v-15h37.111c2.483,0,4.806-1.229,6.202-3.283c1.396-2.054,1.686-4.665,0.772-6.975L89.477,106.891   c-1.131-2.862-3.897-4.743-6.975-4.743s-5.843,1.88-6.975,4.743L30.917,219.743c-0.913,2.31-0.624,4.921,0.772,6.975   c1.396,2.054,3.719,3.283,6.202,3.283h37.111v15H38.269c-4.142,0-7.5,3.358-7.5,7.5s3.358,7.5,7.5,7.5H431.73   c4.142,0,7.5-3.358,7.5-7.5S435.873,245,431.73,245z M82.502,130.049L116.083,215H48.92L82.502,130.049z" fill="#FFFFFF"/>
	<path d="M235,105c20.678,0,37.5-16.822,37.5-37.5S255.678,30,235,30s-37.5,16.822-37.5,37.5S214.322,105,235,105z M235,45   c12.407,0,22.5,10.093,22.5,22.5S247.407,90,235,90s-22.5-10.093-22.5-22.5S222.593,45,235,45z" fill="#FFFFFF"/>
</g>
<g>
</g>
<g>
</g>
<g>
</g>
<g>
</g>
<g>
</g>
<g>
</g>
<g>
</g>
<g>
</g>
<g>
</g>
<g>
</g>
<g>
</g>
<g>
</g>
<g>
</g>
<g>
</g>
<g>
</g>
</svg>
