<?xml version="1.0" encoding="iso-8859-1"?>
<!-- Generator: Adobe Illustrator 19.0.0, SVG Export Plug-In . SVG Version: 6.00 Build 0)  -->
<svg xmlns="http://www.w3.org/2000/svg" xmlns:xlink="http://www.w3.org/1999/xlink" version="1.1" id="Capa_1" x="0px" y="0px" viewBox="0 0 470 470" style="enable-background:new 0 0 470 470;" xml:space="preserve" width="512px" height="512px">
<g>
	<path d="M401.17,68.83C356.784,24.444,297.771,0,235,0S113.216,24.444,68.83,68.83C24.444,113.215,0,172.229,0,235   s24.444,121.785,68.83,166.17C113.216,445.556,172.229,470,235,470s121.784-24.444,166.17-68.83   C445.556,356.785,470,297.771,470,235S445.556,113.215,401.17,68.83z M235,455c-121.309,0-220-98.691-220-220S113.691,15,235,15   s220,98.691,220,220S356.309,455,235,455z" fill="#FFFFFF"/>
	<path d="M436.748,253.083c-1.423-1.599-3.462-2.514-5.603-2.514h-70.152v-2.5c0-4.142-3.357-7.5-7.5-7.5s-7.5,3.358-7.5,7.5v2.5   H212.984v-2.5c0-4.142-3.357-7.5-7.5-7.5s-7.5,3.358-7.5,7.5v2.5h-43.978v-2.5c0-4.142-3.357-7.5-7.5-7.5s-7.5,3.358-7.5,7.5v2.5   H38.854c-2.141,0-4.18,0.915-5.603,2.514s-2.096,3.73-1.847,5.856c5.786,49.506,29.545,95.214,66.901,128.706   C135.964,421.407,184.509,440,235,440c45.24,0,88.169-14.517,124.145-41.982c3.293-2.514,3.924-7.22,1.41-10.513   c-2.513-3.292-7.221-3.924-10.512-1.41C316.704,411.547,276.923,425,235,425c-93.564,0-172.738-67.958-187.531-159.431h375.054   c-6.188,37.829-24.077,73.537-50.917,101.33c-2.877,2.979-2.794,7.728,0.186,10.605c2.98,2.877,7.729,2.795,10.605-0.185   c31.08-32.185,51.038-74.227,56.198-118.379C438.844,256.813,438.171,254.683,436.748,253.083z" fill="#FFFFFF"/>
	<path d="M287.016,318.069v10c0,4.142,3.357,7.5,7.5,7.5s7.5-3.358,7.5-7.5v-10c0-4.142-3.357-7.5-7.5-7.5   S287.016,313.927,287.016,318.069z" fill="#FFFFFF"/>
	<path d="M257.016,288.069v10c0,4.142,3.357,7.5,7.5,7.5s7.5-3.358,7.5-7.5v-10c0-4.142-3.357-7.5-7.5-7.5   S257.016,283.927,257.016,288.069z" fill="#FFFFFF"/>
	<path d="M345.993,288.069v10c0,4.142,3.357,7.5,7.5,7.5s7.5-3.358,7.5-7.5v-10c0-4.142-3.357-7.5-7.5-7.5   S345.993,283.927,345.993,288.069z" fill="#FFFFFF"/>
	<path d="M109.007,288.069v10c0,4.142,3.357,7.5,7.5,7.5s7.5-3.358,7.5-7.5v-10c0-4.142-3.357-7.5-7.5-7.5   S109.007,283.927,109.007,288.069z" fill="#FFFFFF"/>
	<path d="M69.622,168.348h137.756c4.143,0,7.5-3.358,7.5-7.5c0-19.843-16.144-35.986-35.986-35.986   c-0.594,0-1.187,0.015-1.779,0.044c-6.603-15.147-21.645-25.248-38.612-25.248s-32.01,10.101-38.612,25.248   c-0.593-0.029-1.186-0.044-1.779-0.044c-19.843,0-35.986,16.144-35.986,35.986C62.122,164.99,65.479,168.348,69.622,168.348z    M98.108,139.861c1.704,0,3.401,0.206,5.045,0.611c3.992,0.987,8.044-1.436,9.063-5.426c3.066-12.005,13.874-20.389,26.284-20.389   s23.218,8.384,26.284,20.389c1.019,3.99,5.066,6.413,9.063,5.426c1.644-0.405,3.341-0.611,5.045-0.611   c8.931,0,16.577,5.607,19.602,13.486H78.507C81.531,145.468,89.178,139.861,98.108,139.861z" fill="#FFFFFF"/>
	<path d="M182.959,104.441c3.901,1.39,8.191-0.649,9.58-4.552c6.374-17.918,23.438-29.958,42.461-29.958   c20.614,0,38.568,13.929,43.661,33.873c1.019,3.99,5.065,6.414,9.062,5.426c2.8-0.69,5.69-1.04,8.59-1.04   c9.143,0,17.847,3.46,24.508,9.742c1.448,1.367,3.298,2.044,5.145,2.044c1.993,0,3.981-0.79,5.457-2.354   c2.842-3.014,2.703-7.76-0.311-10.602c-9.456-8.918-21.814-13.83-34.799-13.83c-1.747,0-3.491,0.09-5.226,0.268   c-8.798-22.994-30.96-38.527-56.087-38.527c-25.354,0-48.097,16.047-56.594,39.93C177.019,98.764,179.057,103.053,182.959,104.441z   " fill="#FFFFFF"/>
	<path d="M277.23,166.835c-1.162-0.094-2.328-0.141-3.496-0.141c-23.917,0-43.374,19.457-43.374,43.374c0,4.142,3.357,7.5,7.5,7.5   h98.991c4.143,0,7.5-3.358,7.5-7.5s-3.357-7.5-7.5-7.5h-90.485c3.298-12.017,14.318-20.874,27.368-20.874   c2.303,0,4.597,0.278,6.818,0.826c3.994,0.988,8.044-1.436,9.063-5.426c4.081-15.98,18.467-27.14,34.984-27.14   s30.904,11.16,34.985,27.14c1.019,3.99,5.067,6.413,9.063,5.426c2.222-0.548,4.516-0.826,6.818-0.826   c13.05,0,24.07,8.856,27.368,20.874h-35.982c-4.143,0-7.5,3.358-7.5,7.5s3.357,7.5,7.5,7.5h44.488c4.143,0,7.5-3.358,7.5-7.5   c0-23.917-19.458-43.374-43.374-43.374c-1.168,0-2.334,0.047-3.496,0.141c-7.716-19.068-26.321-31.881-47.37-31.881   C303.552,134.955,284.946,147.767,277.23,166.835z" fill="#FFFFFF"/>
</g>
<g>
</g>
<g>
</g>
<g>
</g>
<g>
</g>
<g>
</g>
<g>
</g>
<g>
</g>
<g>
</g>
<g>
</g>
<g>
</g>
<g>
</g>
<g>
</g>
<g>
</g>
<g>
</g>
<g>
</g>
</svg>
