<?xml version="1.0" encoding="iso-8859-1"?>
<!-- Generator: Adobe Illustrator 19.0.0, SVG Export Plug-In . SVG Version: 6.00 Build 0)  -->
<svg xmlns="http://www.w3.org/2000/svg" xmlns:xlink="http://www.w3.org/1999/xlink" version="1.1" id="Capa_1" x="0px" y="0px" viewBox="0 0 470 470" style="enable-background:new 0 0 470 470;" xml:space="preserve" width="512px" height="512px">
<g>
	<path d="M401.17,68.83C356.784,24.444,297.771,0,235,0C172.229,0,113.215,24.444,68.83,68.83C24.444,113.215,0,172.229,0,235   s24.444,121.785,68.83,166.17C113.215,445.556,172.229,470,235,470c62.771,0,121.784-24.444,166.17-68.83   C445.556,356.785,470,297.771,470,235S445.556,113.215,401.17,68.83z M235,455c-121.309,0-220-98.691-220-220S113.691,15,235,15   s220,98.691,220,220S356.309,455,235,455z" fill="#FFFFFF"/>
	<path d="M235,298.333c4.143,0,7.5-3.358,7.5-7.5V265c0-4.142-3.357-7.5-7.5-7.5c-4.142,0-7.5,3.358-7.5,7.5v25.833   C227.5,294.976,230.858,298.333,235,298.333z" fill="#FFFFFF"/>
	<path d="M227.5,402.5c0,4.142,3.358,7.5,7.5,7.5c4.143,0,7.5-3.358,7.5-7.5v-25.833c0-4.142-3.357-7.5-7.5-7.5   c-4.142,0-7.5,3.358-7.5,7.5V402.5z" fill="#FFFFFF"/>
	<path d="M227.5,346.667c0,4.142,3.358,7.5,7.5,7.5c4.143,0,7.5-3.358,7.5-7.5v-25.833c0-4.142-3.357-7.5-7.5-7.5   c-4.142,0-7.5,3.358-7.5,7.5V346.667z" fill="#FFFFFF"/>
	<path d="M355.927,265c0-4.142-3.357-7.5-7.5-7.5s-7.5,3.358-7.5,7.5v10c0,4.142,3.357,7.5,7.5,7.5s7.5-3.358,7.5-7.5V265z" fill="#FFFFFF"/>
	<path d="M385.927,305v-10c0-4.142-3.357-7.5-7.5-7.5s-7.5,3.358-7.5,7.5v10c0,4.142,3.357,7.5,7.5,7.5S385.927,309.142,385.927,305   z" fill="#FFFFFF"/>
	<path d="M126.574,321.458v-10c0-4.142-3.358-7.5-7.5-7.5s-7.5,3.358-7.5,7.5v10c0,4.142,3.358,7.5,7.5,7.5   S126.574,325.601,126.574,321.458z" fill="#FFFFFF"/>
	<path d="M235,125c26.191,0,47.5-21.309,47.5-47.5S261.191,30,235,30s-47.5,21.309-47.5,47.5S208.809,125,235,125z M235,45   c17.921,0,32.5,14.58,32.5,32.5S252.921,110,235,110c-17.92,0-32.5-14.58-32.5-32.5S217.08,45,235,45z" fill="#FFFFFF"/>
	<path d="M432.5,227.5h-44.073v-16.151c10.132-3.193,17.5-12.676,17.5-23.849v-57.542c0-13.785-11.215-25-25-25s-25,11.215-25,25   V187.5c0,11.173,7.368,20.656,17.5,23.849V227.5h-50v-16.151c10.132-3.193,17.5-12.676,17.5-23.849v-57.542   c0-13.785-11.215-25-25-25s-25,11.215-25,25V187.5c0,11.173,7.368,20.656,17.5,23.849V227.5h-23.241c-0.023,0-123.612,0-123.612,0   v-16.151c10.132-3.193,17.5-12.676,17.5-23.849v-57.542c0-13.785-11.215-25-25-25s-25,11.215-25,25V187.5   c0,11.173,7.368,20.656,17.5,23.849V227.5h-50v-16.151c10.132-3.193,17.5-12.676,17.5-23.849v-57.542c0-13.785-11.215-25-25-25   s-25,11.215-25,25V187.5c0,11.173,7.368,20.656,17.5,23.849V227.5H37.5c-4.142,0-7.5,3.358-7.5,7.5   c0,22.554,3.661,44.74,10.882,65.941c1.335,3.921,5.596,6.016,9.518,4.682c3.921-1.335,6.017-5.597,4.682-9.518   c-5.888-17.288-9.221-35.285-9.935-53.605h128.831l-48.267,122.283c-1.521,3.853,0.37,8.209,4.223,9.729   c0.904,0.357,1.835,0.526,2.751,0.526c2.989,0,5.814-1.799,6.978-4.749l50.441-127.79h89.794l50.443,127.794   c1.164,2.949,3.989,4.749,6.979,4.749c0.916,0,1.848-0.169,2.752-0.526c3.853-1.521,5.743-5.877,4.223-9.73L296.024,242.5h128.83   C420.9,343.802,337.253,425,235,425c-70.996,0-135.579-39.228-168.547-102.375c-1.917-3.671-6.447-5.094-10.12-3.177   c-3.671,1.917-5.094,6.448-3.177,10.12C88.719,397.685,158.397,440,235,440c113.037,0,205-91.962,205-205   C440,230.858,436.643,227.5,432.5,227.5z M370.927,129.958c0-5.514,4.486-10,10-10s10,4.486,10,10V187.5c0,5.514-4.486,10-10,10   s-10-4.486-10-10V129.958z M305.927,129.958c0-5.514,4.486-10,10-10s10,4.486,10,10V187.5c0,5.514-4.486,10-10,10s-10-4.486-10-10   V129.958z M144.074,129.958c0-5.514,4.486-10,10-10s10,4.486,10,10V187.5c0,5.514-4.486,10-10,10s-10-4.486-10-10V129.958z    M79.074,129.958c0-5.514,4.486-10,10-10s10,4.486,10,10V187.5c0,5.514-4.486,10-10,10s-10-4.486-10-10V129.958z" fill="#FFFFFF"/>
</g>
<g>
</g>
<g>
</g>
<g>
</g>
<g>
</g>
<g>
</g>
<g>
</g>
<g>
</g>
<g>
</g>
<g>
</g>
<g>
</g>
<g>
</g>
<g>
</g>
<g>
</g>
<g>
</g>
<g>
</g>
</svg>
