<?xml version="1.0" encoding="iso-8859-1"?>
<!-- Generator: Adobe Illustrator 19.0.0, SVG Export Plug-In . SVG Version: 6.00 Build 0)  -->
<svg xmlns="http://www.w3.org/2000/svg" xmlns:xlink="http://www.w3.org/1999/xlink" version="1.1" id="Capa_1" x="0px" y="0px" viewBox="0 0 470 470" style="enable-background:new 0 0 470 470;" xml:space="preserve" width="512px" height="512px">
<g>
	<path d="M401.17,68.83C356.784,24.444,297.771,0,235,0S113.216,24.444,68.83,68.83C24.444,113.215,0,172.229,0,235   s24.444,121.785,68.83,166.17C113.216,445.556,172.229,470,235,470s121.784-24.444,166.17-68.83   C445.556,356.785,470,297.771,470,235S445.556,113.215,401.17,68.83z M235,455c-121.309,0-220-98.691-220-220S113.691,15,235,15   s220,98.691,220,220S356.309,455,235,455z" fill="#FFFFFF"/>
	<path d="M275,363.766c15.163,0,27.5-12.336,27.5-27.5v-79.039c0-4.142-3.357-7.5-7.5-7.5s-7.5,3.358-7.5,7.5v79.039   c0,6.893-5.607,12.5-12.5,12.5s-12.5-5.607-12.5-12.5v-67.415c0-15.164-12.337-27.5-27.5-27.5s-27.5,12.336-27.5,27.5v26.815   c0,6.893-5.607,12.5-12.5,12.5s-12.5-5.607-12.5-12.5v-38.187c0-4.142-3.357-7.5-7.5-7.5s-7.5,3.358-7.5,7.5v38.187   c0,15.164,12.337,27.5,27.5,27.5s27.5-12.336,27.5-27.5v-26.815c0-6.893,5.607-12.5,12.5-12.5s12.5,5.607,12.5,12.5v67.415   C247.5,351.429,259.837,363.766,275,363.766z" fill="#FFFFFF"/>
	<circle cx="209.553" cy="382.329" r="7.5" fill="#FFFFFF"/>
	<circle cx="173.553" cy="354.329" r="7.5" fill="#FFFFFF"/>
	<path d="M130.446,126.5h62.147v32.229c0,4.142,3.357,7.5,7.5,7.5s7.5-3.358,7.5-7.5V126.5h12.5c4.143,0,7.5-3.358,7.5-7.5   s-3.357-7.5-7.5-7.5h-81.355c3.455-16.119,17.813-28.241,34.949-28.241c2.9,0,5.789,0.35,8.588,1.04   c3.993,0.987,8.044-1.436,9.063-5.426C196.432,58.929,214.386,45,235,45s38.568,13.929,43.662,33.873   c1.019,3.99,5.068,6.412,9.063,5.426c2.799-0.69,5.688-1.04,8.588-1.04c17.136,0,31.494,12.122,34.949,28.241h-81.168   c-4.143,0-7.5,3.358-7.5,7.5s3.357,7.5,7.5,7.5h12.5v32.229c0,4.142,3.357,7.5,7.5,7.5s7.5-3.358,7.5-7.5V126.5h61.96   c4.143,0,7.5-3.358,7.5-7.5c0-27.979-22.763-50.741-50.741-50.741c-1.747,0-3.491,0.09-5.225,0.268   C282.289,45.533,260.126,30,235,30s-47.289,15.533-56.088,38.527c-1.733-0.178-3.478-0.268-5.225-0.268   c-27.979,0-50.741,22.762-50.741,50.741C122.946,123.142,126.304,126.5,130.446,126.5z" fill="#FFFFFF"/>
	<path d="M222.594,149v9.729c0,4.142,3.357,7.5,7.5,7.5s7.5-3.358,7.5-7.5V149c0-4.142-3.357-7.5-7.5-7.5   S222.594,144.858,222.594,149z" fill="#FFFFFF"/>
	<path d="M394.978,355.393l-88.389-153.094c-6.821-11.815-22.853-21.071-36.495-21.071h-70c-13.641,0-29.675,9.251-36.503,21.061   l-88.535,153.14c-1.556,2.691-1.29,6.063,0.668,8.478c39.171,48.308,97.165,76.042,159.118,76.091h0.322   c32.797-0.026,64.166-7.617,93.235-22.561c3.685-1.894,5.136-6.416,3.241-10.1c-1.895-3.684-6.417-5.135-10.099-3.241   c-26.933,13.845-55.998,20.877-86.384,20.901h-0.311c-55.702-0.044-107.959-24.246-144.187-66.592l85.916-148.608   c4.179-7.228,15.168-13.569,23.517-13.569h70c8.348,0,19.331,6.341,23.505,13.571l85.773,148.564   c-9.811,11.46-20.972,21.747-33.237,30.626c-3.354,2.429-4.105,7.118-1.677,10.473c2.43,3.356,7.12,4.106,10.474,1.677   c14.722-10.658,27.971-23.199,39.378-37.274C396.265,361.452,396.53,358.083,394.978,355.393z" fill="#FFFFFF"/>
</g>
<g>
</g>
<g>
</g>
<g>
</g>
<g>
</g>
<g>
</g>
<g>
</g>
<g>
</g>
<g>
</g>
<g>
</g>
<g>
</g>
<g>
</g>
<g>
</g>
<g>
</g>
<g>
</g>
<g>
</g>
</svg>
